<mxfile host="app.diagrams.net" modified="2024-03-18T07:06:17.655Z" agent="Mozilla/5.0 (Windows NT 10.0; Win64; x64) AppleWebKit/537.36 (KHTML, like Gecko) Chrome/122.0.0.0 Safari/537.36 Edg/122.0.0.0" etag="PsZvirwe2MnZBX8gCr97" version="24.0.7" type="github">
  <diagram name="第 1 页" id="674MU1z2wqgcmouVuyam">
    <mxGraphModel dx="970" dy="423" grid="1" gridSize="10" guides="1" tooltips="1" connect="1" arrows="1" fold="1" page="1" pageScale="1" pageWidth="850" pageHeight="1100" math="0" shadow="0">
      <root>
        <mxCell id="0" />
        <mxCell id="1" parent="0" />
        <mxCell id="2iUAOUVQrEcRfcxT_NKO-1" value="" style="endArrow=classic;html=1;rounded=0;" edge="1" parent="1">
          <mxGeometry width="50" height="50" relative="1" as="geometry">
            <mxPoint x="80" y="310" as="sourcePoint" />
            <mxPoint x="160" y="310" as="targetPoint" />
          </mxGeometry>
        </mxCell>
        <mxCell id="2iUAOUVQrEcRfcxT_NKO-2" value="解析接收到的配置字" style="rounded=1;whiteSpace=wrap;html=1;" vertex="1" parent="1">
          <mxGeometry x="160" y="280" width="130" height="60" as="geometry" />
        </mxCell>
        <mxCell id="2iUAOUVQrEcRfcxT_NKO-3" value="接收到配置报文" style="text;html=1;align=center;verticalAlign=middle;whiteSpace=wrap;rounded=0;" vertex="1" parent="1">
          <mxGeometry x="80" y="280" width="70" height="30" as="geometry" />
        </mxCell>
        <mxCell id="2iUAOUVQrEcRfcxT_NKO-4" value="Loop 配置" style="rounded=1;whiteSpace=wrap;html=1;" vertex="1" parent="1">
          <mxGeometry x="425" y="165" width="120" height="40" as="geometry" />
        </mxCell>
        <mxCell id="2iUAOUVQrEcRfcxT_NKO-5" value="DCS 配置" style="rounded=1;whiteSpace=wrap;html=1;" vertex="1" parent="1">
          <mxGeometry x="425" y="225" width="120" height="40" as="geometry" />
        </mxCell>
        <mxCell id="2iUAOUVQrEcRfcxT_NKO-6" value="RSU 配置" style="rounded=1;whiteSpace=wrap;html=1;" vertex="1" parent="1">
          <mxGeometry x="425" y="290" width="120" height="40" as="geometry" />
        </mxCell>
        <mxCell id="2iUAOUVQrEcRfcxT_NKO-7" value="GPO 配置" style="rounded=1;whiteSpace=wrap;html=1;" vertex="1" parent="1">
          <mxGeometry x="425" y="350" width="120" height="40" as="geometry" />
        </mxCell>
        <mxCell id="2iUAOUVQrEcRfcxT_NKO-8" value="软件功能配置&lt;div&gt;(SBR, EDR, CAN节点等)&lt;/div&gt;" style="rounded=1;whiteSpace=wrap;html=1;" vertex="1" parent="1">
          <mxGeometry x="425" y="410" width="120" height="50" as="geometry" />
        </mxCell>
        <mxCell id="2iUAOUVQrEcRfcxT_NKO-13" value="" style="endArrow=none;dashed=1;html=1;dashPattern=1 3;strokeWidth=2;rounded=0;" edge="1" parent="1">
          <mxGeometry width="50" height="50" relative="1" as="geometry">
            <mxPoint x="360" y="310" as="sourcePoint" />
            <mxPoint x="400" y="310" as="targetPoint" />
          </mxGeometry>
        </mxCell>
        <mxCell id="2iUAOUVQrEcRfcxT_NKO-14" value="" style="curved=1;endArrow=classic;html=1;rounded=0;" edge="1" parent="1">
          <mxGeometry width="50" height="50" relative="1" as="geometry">
            <mxPoint x="290" y="290" as="sourcePoint" />
            <mxPoint x="420" y="190" as="targetPoint" />
            <Array as="points">
              <mxPoint x="330" y="280" />
              <mxPoint x="320" y="190" />
            </Array>
          </mxGeometry>
        </mxCell>
        <mxCell id="2iUAOUVQrEcRfcxT_NKO-15" value="" style="curved=1;endArrow=classic;html=1;rounded=0;exitX=1;exitY=0.75;exitDx=0;exitDy=0;" edge="1" parent="1" source="2iUAOUVQrEcRfcxT_NKO-2">
          <mxGeometry width="50" height="50" relative="1" as="geometry">
            <mxPoint x="375" y="490" as="sourcePoint" />
            <mxPoint x="425" y="440" as="targetPoint" />
            <Array as="points">
              <mxPoint x="350" y="320" />
              <mxPoint x="375" y="440" />
            </Array>
          </mxGeometry>
        </mxCell>
      </root>
    </mxGraphModel>
  </diagram>
</mxfile>
